<?xml version="1.0" standalone="no"?>
<!-- Generator: Adobe Fireworks 10, Export SVG Extension by Aaron Beall (http://fireworks.abeall.com) . Version: 0.6.1  -->
<!DOCTYPE svg PUBLIC "-//W3C//DTD SVG 1.1//EN" "http://www.w3.org/Graphics/SVG/1.1/DTD/svg11.dtd">
<svg id="Untitled-P%E1gina%201" viewBox="0 0 61 60" style="background-color:#ffffff00" version="1.1"
	xmlns="http://www.w3.org/2000/svg" xmlns:xlink="http://www.w3.org/1999/xlink" xml:space="preserve"
	x="0px" y="0px" width="61px" height="60px"
>
	<g>
		<g>
			<path d="M 31.2778 35.4543 L 30.8489 34.824 C 27.6497 37.145 23.6904 38.518 19.4033 38.518 C 8.7764 38.518 0.1577 30.0799 0.1577 19.675 C 0.1577 9.2701 8.7764 0.8318 19.4033 0.8318 C 30.0315 0.8318 38.6504 9.2701 38.6504 19.675 C 38.6504 23.9588 37.1882 27.9085 34.7275 31.0736 L 35.5806 31.7423 L 35.6909 31.8288 L 35.6909 31.9659 L 35.6909 33.1037 L 36.9329 33.8251 L 38.2891 34.0506 L 38.8499 34.1441 L 38.7595 34.2327 C 39.0996 34.3165 39.4219 34.488 39.6863 34.7471 L 59.5554 54.2177 C 60.3379 54.9841 60.3372 56.2376 59.5544 57.0035 L 57.3984 59.1121 C 56.6155 59.8781 55.3354 59.8773 54.5535 59.1111 L 34.6838 39.6405 C 34.4199 39.3821 34.2454 39.0679 34.1594 38.7362 L 34.0872 38.8071 L 33.9478 38.3422 L 33.4253 36.6011 L 32.8853 35.6299 L 31.5129 35.5836 L 31.3621 35.5785 L 31.2778 35.4543 L 31.2778 35.4543 ZM 19.123 7.0804 C 12.2061 7.0804 6.5967 12.5724 6.5967 19.3445 C 6.5967 26.1166 12.2061 31.6086 19.123 31.6086 C 26.04 31.6086 31.6492 26.1166 31.6492 19.3445 C 31.6492 12.5724 26.04 7.0804 19.123 7.0804 Z" fill="#ffffff"/>
		</g>
	</g>
</svg>